<svg width="176" height="59" viewBox="0 0 176 59" fill="none" xmlns="http://www.w3.org/2000/svg">
<path fill-rule="evenodd" clip-rule="evenodd" d="M0 53.9702C1.66748 47.0378 5.68504 41.6377 10.6657 36.9192C15.812 32.0434 21.7347 28.3901 28.2052 25.6845C29.0844 25.3167 29.6717 24.8126 30.1476 23.9654C33.7731 17.5186 38.1221 11.6367 43.2952 6.41356C43.4087 6.29959 43.5701 6.23576 43.6568 6.0718C40.006 7.15478 36.4828 7.27526 33.0511 5.20864C33.3361 7.96714 32.4258 10.3013 30.8083 12.3722C29.7238 13.7598 28.4118 14.8746 26.723 15.4832C26.9347 15.2989 27.1476 15.1169 27.3568 14.9304C29.413 13.1062 31.2509 11.1065 32.0049 8.32619C32.2115 7.56382 32.2825 6.74933 32.3149 5.95425C32.3489 5.11728 32.1663 4.35133 31.4399 3.76808C31.1411 3.52805 30.9571 3.02021 30.9005 2.60758C30.8308 2.10199 31.2645 1.90173 31.6755 2.20572C31.8385 2.32619 32.0033 2.48936 32.0873 2.67207C32.9997 4.65957 34.7433 5.39215 36.6492 5.80784C40.1344 6.56795 43.2782 5.68164 46.1386 3.5722C46.3657 3.40478 46.5999 3.24587 46.9072 3.16462C41.3175 9.21701 37.2775 16.2899 33.6025 23.8486C34.5162 23.5875 35.2439 23.33 35.9912 23.1763C37.4029 22.8832 38.8186 22.601 40.245 22.4081C41.2829 22.2674 42.1015 22.7627 42.7191 23.6332C43.2867 24.4319 43.7041 24.6009 44.5275 24.072C45.5112 23.4417 46.4566 22.7092 47.293 21.8851C49.3305 19.8803 50.8494 17.4554 52.3138 14.9957C53.7444 12.5927 55.2864 10.2701 57.4207 8.46036C58.4599 7.57832 59.593 6.80584 60.7232 6.0464C61.0404 5.83324 61.5051 5.74614 61.8922 5.77007C62.6621 5.81582 63.0774 6.40837 62.806 7.14893C62.5614 7.81781 62.2059 8.48297 61.7574 9.02539C60.0703 11.0679 58.0784 12.7799 55.9624 14.3299C55.0085 15.0291 54.2125 15.8524 53.621 16.8816C52.3991 19.0106 51.1921 21.1496 49.8896 23.4417C50.3671 23.2748 50.7048 23.1211 51.0586 23.0413C51.9027 22.8484 52.7495 22.5967 53.6056 22.5423C54.5983 22.4792 55.0917 23.1407 54.8703 24.1474C54.7315 24.7836 54.5092 25.419 54.2181 25.9985C53.671 27.0859 53.0462 28.1318 52.4547 29.196C52.3645 29.3593 52.2199 29.523 52.2093 29.6928C52.1931 29.9501 52.2728 30.215 52.3116 30.4762C52.5421 30.4158 52.8362 30.4267 52.9906 30.281C53.411 29.8859 53.7951 29.4425 54.1498 28.9835C55.4499 27.3042 56.7058 25.5888 58.0311 23.932C58.737 23.0486 59.6401 22.4364 60.8375 22.5786C61.8364 22.6976 62.1376 23.0254 62.2721 24.0517C62.2963 24.2331 62.3173 24.4145 62.3484 24.6639C62.9745 24.2425 63.511 23.7993 64.114 23.4961C64.8486 23.127 65.6177 22.7758 66.4102 22.5967C67.7738 22.2869 68.618 23.2322 68.2697 24.6175C68.1463 25.1101 67.9086 25.5859 67.6534 26.0268C67.0201 27.1207 66.3448 28.1889 65.6906 29.2707C65.5691 29.4692 65.3949 29.6724 65.3702 29.8884C65.3253 30.2868 65.2343 30.7974 65.4231 31.0695C65.5797 31.295 66.1614 31.3931 66.4687 31.2849C67.2966 30.9961 68.0785 30.567 68.9027 30.1823C68.5355 29.6196 68.2577 29.1938 67.9791 28.7694C68.0448 28.7034 68.1102 28.6381 68.1758 28.5719C68.6172 28.8978 69.0593 29.2236 69.5804 29.6065C70.5893 28.7396 71.6645 27.9274 72.6115 26.98C74.3693 25.2203 76.0416 23.3707 77.7713 21.5819C78.2049 21.1344 78.2498 20.7391 78.0244 20.1486C77.2093 18.0038 77.2904 15.8488 78.1999 13.7504C79.2835 11.248 81.2155 9.96329 83.8446 9.7972C84.3171 9.76741 84.5385 9.63177 84.6598 9.17047C84.8637 8.398 85.1309 7.64374 85.3542 6.87552C85.8112 5.31023 85.9303 3.73337 85.5065 2.13244C85.3882 1.68351 85.2364 1.0633 85.8543 0.955983C86.4471 0.852925 86.6051 1.45133 86.6933 1.95771C86.7497 2.28191 86.7518 2.61768 86.8244 2.93617C87.2588 4.84747 88.3143 5.56914 91.0378 5.46037C92.4141 5.40452 93.6594 4.7988 94.8143 4.05093C95.7648 3.43736 96.6623 2.73736 97.6064 2.1121C98.7015 1.38683 99.821 0.702127 100.93 0H101.068C100.987 0.158776 100.944 0.361835 100.821 0.469946C97.3046 3.53962 94.7098 7.35212 92.4564 11.4416C92.0385 12.2003 91.3326 12.9315 91.2699 13.7185C91.2114 14.4576 91.8861 15.2344 92.1336 16.0294C92.5524 17.3822 92.8895 18.7625 93.2617 20.1342C93.3723 19.9643 93.5382 19.7229 93.6911 19.474C96.1037 15.563 98.6393 11.7484 101.829 8.44374C104.009 6.18497 106.413 4.23523 109.194 2.80851C109.423 2.68949 109.673 2.61263 109.98 2.63298C109.918 2.72287 109.875 2.83603 109.793 2.8992C106.733 5.29866 104.41 8.39148 102.384 11.6802C99.4783 16.3993 96.7806 21.2533 93.9963 26.0508C93.9556 26.1226 93.9378 26.2082 93.8511 26.4505C94.557 26.1262 95.1442 25.8883 95.7034 25.5931C96.8864 24.9678 98.049 24.3049 99.2295 23.6767C99.7992 23.3735 100.378 23.0848 100.973 22.8411C102.442 22.2384 103.875 22.0324 105.096 23.5201C105.729 22.0375 106.91 22.8165 108.008 22.5655C107.689 23.1625 107.454 23.6122 107.211 24.0561C106.312 25.7005 105.41 27.3433 104.509 28.9864C104.487 29.0276 104.466 29.0696 104.444 29.1111C104.176 29.6171 103.826 30.2424 104.368 30.6444C104.91 31.0484 105.352 30.4325 105.667 30.0437C106.707 28.757 107.672 27.4042 108.712 26.1167C109.5 25.1427 110.307 24.1693 111.212 23.3155C111.637 22.9143 112.295 22.6989 112.883 22.5721C114.041 22.3211 114.778 22.8796 115.014 24.1445C115.826 23.7 116.518 23.2089 117.283 22.9368C117.901 22.7178 118.635 22.6054 119.267 22.7264C120.286 22.9231 120.814 23.9952 120.521 25.023C120.382 25.5147 120.169 25.9949 119.923 26.4417C119.435 27.3218 118.897 28.1724 118.388 29.0423C118.247 29.2836 118.062 29.5347 118.032 29.7981C117.989 30.1686 118.072 30.5544 118.101 30.9344C118.462 30.886 118.928 30.9665 119.167 30.7639C120.029 30.0345 120.886 29.2727 121.611 28.406C122.566 27.2635 123.352 25.9731 124.29 24.8141C125.244 23.6347 126.401 22.6678 127.946 22.4857C128.704 22.3965 129.494 22.506 130.258 22.6149C130.541 22.6554 130.827 22.9151 131.047 23.1421C131.451 23.5593 131.42 24.1302 131.03 24.4485C130.597 24.8025 129.948 24.7286 129.629 24.2896C128.946 23.3489 128.325 23.2524 127.652 24.2084C126.596 25.7098 125.675 27.313 124.718 28.8869C124.578 29.1162 124.517 29.4171 124.484 29.6928C124.379 30.5921 125.075 31.361 125.904 31.0949C126.685 30.8433 127.485 30.4284 128.091 29.8711C129.285 28.7738 130.327 27.5045 131.476 26.3525C132.491 25.3356 133.517 24.3201 134.626 23.4193C135.551 22.6663 136.692 22.4509 137.88 22.5139C138.971 22.5735 139.734 23.0638 140.181 24.1141C140.667 25.2558 140.995 25.3675 142.08 24.7699C142.929 24.302 143.751 23.7848 144.578 23.2799C145.869 22.4923 147.247 22.3327 148.693 22.6626C149.353 22.8135 149.784 23.2393 149.969 23.9045C150.118 24.4427 149.919 24.838 149.415 25.0367C148.899 25.2413 148.618 24.9961 148.414 24.497C148.085 23.6941 147.593 23.5339 146.91 24.0597C146.422 24.4355 145.953 24.8931 145.617 25.411C144.944 26.4476 144.332 27.5319 143.768 28.6367C143.554 29.0561 143.469 29.5819 143.453 30.0635C143.425 30.8707 143.939 31.3341 144.695 31.1304C145.325 30.9614 145.944 30.6619 146.501 30.3091C148.483 29.0524 150.072 27.3218 151.463 25.4494C153.591 22.5857 155.633 19.6467 157.585 16.6525C159.771 13.2963 162.289 10.26 165.21 7.56967C166.092 6.75731 167.08 6.08989 168.267 5.90425C168.717 5.8339 169.31 5.92313 169.659 6.18935C170.13 6.54547 169.871 7.14534 169.666 7.62406C169.048 9.0726 167.955 10.1476 166.81 11.1137C165.449 12.2605 163.94 13.2202 162.524 14.2995C162.04 14.6686 161.531 15.085 161.222 15.5993C159.748 18.0444 158.337 20.5287 156.911 23.0029C156.754 23.2756 156.644 23.5774 156.62 23.9589C157.191 23.6383 157.738 23.2538 158.34 23.013C159.227 22.6576 160.136 22.3145 161.066 22.1353C161.843 21.9867 162.607 22.2689 162.974 23.0804C163.343 23.8965 163.312 24.7488 162.79 25.5032C161.839 26.8791 160.466 27.617 158.922 28.0264C157.796 28.3254 156.649 28.538 155.508 28.7899C155.528 28.8512 155.528 28.9146 155.556 28.934C158.185 30.7665 160.032 33.3246 161.624 36.0707C162.339 37.3039 163.195 37.9102 164.586 38.1577C167.893 38.746 171.008 39.9557 173.673 42.1188C174.424 42.7287 175.078 43.5614 175.546 44.4247C176.649 46.4541 175.669 48.2174 173.406 48.4417C170.888 48.6904 168.726 47.7366 166.742 46.2691C164.425 44.5535 162.807 42.1962 161.261 39.7889C160.897 39.221 160.481 38.9974 159.825 38.9164C153.593 38.1468 147.335 37.8993 141.071 38.1191C136.993 38.2613 132.924 38.6465 128.852 38.9228C128.558 38.9424 128.264 38.9606 127.91 38.9845C128.95 38.2135 134.179 37.4134 143.513 36.7845C148.756 36.432 154.011 36.5524 159.453 37.1913C157.697 34.3089 156.524 31.2413 153.942 28.9732C153.358 29.9968 152.845 30.8556 152.378 31.7389C152.176 32.1203 151.935 32.2728 151.511 32.2561C150.67 32.2236 149.827 32.246 148.857 32.246C149.911 30.2622 150.921 28.3595 151.932 26.457C151.886 26.4272 151.839 26.3982 151.793 26.3686C151.119 27.0989 150.495 27.8883 149.76 28.5454C148.57 29.6071 147.359 30.6603 146.053 31.5598C145.42 31.9957 144.567 32.2191 143.792 32.2853C142.035 32.436 140.902 31.1893 141.1 29.3945C141.195 28.5351 141.445 27.6931 141.635 26.8452C141.698 26.5564 141.79 26.2742 141.877 25.9594C141.197 26.1117 140.585 26.2133 139.999 26.4048C139.839 26.457 139.742 26.7705 139.649 26.9791C139.007 28.4228 138.323 29.8379 137.088 30.8673C136.204 31.6048 135.245 32.1968 134.081 32.3114C131.929 32.5231 130.667 31.1436 130.987 28.9465C131.028 28.6693 131.077 28.3936 131.001 28.0186C130.818 28.197 130.639 28.3804 130.451 28.5534C129.408 29.5078 128.415 30.532 127.301 31.3923C126.264 32.1929 125.042 32.5173 123.72 32.1524C122.378 31.7823 121.714 30.7371 121.848 29.2191C121.705 29.4033 121.575 29.5998 121.418 29.7683C120.522 30.7307 119.54 31.575 118.311 32.0566C117.512 32.3694 116.705 32.4571 115.915 32.0255C115.176 31.6227 114.876 31.126 115.11 30.281C115.357 29.3853 115.746 28.5219 116.15 27.6843C116.536 26.8835 117.04 26.1436 117.457 25.3574C117.791 24.7271 117.56 24.3201 116.897 24.4819C116.254 24.6392 115.55 24.9098 115.084 25.3603C114.43 25.9943 113.903 26.8014 113.438 27.6052C112.642 28.9818 111.926 30.4086 111.201 31.8275C111.018 32.1851 110.81 32.3424 110.407 32.3264C109.61 32.2946 108.811 32.3173 107.896 32.3173C108.052 32.0044 108.155 31.7798 108.274 31.5626C109.342 29.6107 110.413 27.6602 111.483 25.7091C111.562 25.5655 111.688 25.4175 111.693 25.2689C111.702 24.9881 111.638 24.7045 111.604 24.4224C111.352 24.4796 111.075 24.4891 110.857 24.611C110.669 24.7154 110.537 24.9388 110.399 25.1252C109.292 26.6302 108.209 28.1557 107.075 29.6389C106.595 30.2663 106.033 30.8345 105.464 31.3778C105.133 31.6933 104.734 31.9574 104.326 32.1574C102.887 32.8662 101.757 32.3468 101.309 30.7938C100.806 31.1159 100.322 31.4649 99.8048 31.7512C98.9974 32.1973 98.1301 32.394 97.2137 32.211C96.2334 32.0166 95.6154 31.2704 95.5462 30.244C95.4636 29.0117 95.8873 27.9294 96.4621 26.89C96.5932 26.6537 96.7293 26.4193 96.8949 26.1278C95.6927 26.5419 94.5676 26.9133 93.4563 27.328C93.2715 27.3969 93.1165 27.6299 93.0078 27.8235C92.2618 29.1502 91.5195 30.4792 90.8051 31.8239C90.6134 32.1837 90.3877 32.3069 89.9964 32.296C89.06 32.2678 88.1218 32.2865 87.0682 32.2865C87.824 30.7698 88.5397 29.3345 89.2464 27.9155C87.7698 27.5716 86.3365 27.2375 84.7924 26.8784C84.6669 27.0779 84.4625 27.4095 84.2517 27.7367C82.5438 30.3941 80.2558 32.1937 77.1572 32.7703C74.9933 33.173 72.9789 32.5718 71.1513 31.4867C69.9999 30.8017 69.1635 30.7271 67.9812 31.4712C67.0342 32.0669 65.7841 32.3033 64.6471 32.394C62.7334 32.5457 62.031 31.3489 62.9392 29.594C63.5836 28.3486 64.3796 27.186 65.0988 25.9804C65.3731 25.5198 65.7568 24.9982 65.2955 24.5044C64.7978 23.9698 64.1576 24.252 63.7381 24.6298C63.0048 25.2899 62.278 26.0022 61.7244 26.8197C60.6379 28.4242 59.66 30.1077 58.6636 31.7752C58.4485 32.1351 58.2321 32.3173 57.8014 32.2917C57.1245 32.251 56.4442 32.2808 55.6346 32.2808C56.0294 31.5853 56.3572 31 56.6922 30.4181C57.6278 28.7954 58.5671 27.1744 59.5034 25.5517C59.5973 25.3893 59.7395 25.2311 59.7616 25.0578C59.8031 24.732 59.7728 24.3969 59.772 24.0655C59.4654 24.1388 59.1108 24.1373 58.8632 24.3034C58.5466 24.5167 58.2901 24.8439 58.0553 25.1601C56.7707 26.8829 55.5022 28.6185 54.2253 30.3462C53.5878 31.2087 52.8354 31.9333 51.7927 32.2214C51.065 32.4223 50.3147 32.4642 49.741 31.8252C49.1628 31.1835 49.2255 30.4158 49.5669 29.7074C50.2174 28.3566 50.9608 27.0526 51.6036 25.6982C51.7842 25.3182 51.9548 24.661 51.7717 24.4267C51.4056 23.9566 50.8746 24.3731 50.4841 24.6205C49.0966 25.4994 48.173 26.8203 47.3648 28.2348C46.7028 29.3945 46.0421 30.5544 45.416 31.7339C45.1983 32.1452 44.9388 32.2924 44.4903 32.2678C43.7844 32.2287 43.0751 32.2577 42.2052 32.2577C43.9333 29.1931 45.6141 26.2126 47.2951 23.2322C47.2589 23.1856 47.2225 23.1392 47.1858 23.0928C46.0259 24.0466 44.9162 25.1093 43.2641 25.0665C43.1618 25.4146 43.0666 25.7461 42.9658 26.077C42.2762 28.3413 41.0474 30.2085 39.0406 31.4278C38.4273 31.7998 37.6962 32.0683 36.9916 32.1582C34.8674 32.4303 33.5461 30.8961 33.9233 28.7122C34.1461 27.4202 34.7855 26.3387 35.5252 25.3052C35.7939 24.9294 36.0625 24.5522 36.3493 24.1489C36.2417 24.1365 36.1935 24.1185 36.1521 24.1279C35.17 24.3484 33.9951 24.3049 33.2619 24.8699C32.5555 25.4146 32.296 26.5818 31.8552 27.4833C29.169 32.9794 26.5835 38.5305 23.7765 43.9603C21.2968 48.7563 17.8391 52.7429 13.4282 55.7908C11.1578 57.3596 8.71121 58.5364 5.95715 58.8277C5.01308 58.9285 4.02806 58.8736 3.08824 58.7212C1.41292 58.4478 0.347613 57.4178 0 55.6695V53.9702ZM28.8353 26.2767C28.5101 26.4067 28.382 26.4516 28.2578 26.5075C21.6104 29.5074 15.6914 33.5999 10.6973 39.0421C7.56109 42.4605 4.56377 46.0054 2.52395 50.2649C1.95155 51.4601 1.46782 52.7316 1.16314 54.022C0.656277 56.1712 1.53415 57.5465 3.46031 57.9075C3.8179 57.9751 4.19156 57.9794 4.55673 57.9665C6.78265 57.8908 8.57575 56.7615 10.2403 55.3952C13.2517 52.9222 15.6588 49.8715 17.619 46.5044C20.9491 40.7846 24.1113 34.9614 27.3342 29.1753C27.8319 28.2824 28.277 27.3581 28.8353 26.2767ZM82.0578 24.1622C84.257 20.2075 86.4354 16.2892 88.6354 12.3345C87.7203 11.4199 86.542 11.0616 85.3159 10.8368C85.1904 10.8143 84.9416 11.005 84.8857 11.1509C83.5639 14.597 81.811 17.787 79.5922 20.7072C79.48 20.8559 79.4249 21.1868 79.5082 21.3348C80.1337 22.443 80.9063 23.4237 82.0578 24.1622ZM70.4745 29.9314C72.6011 31.335 75.6117 31.3132 77.5881 29.9169C79.3351 28.6824 80.4456 26.9024 81.501 25.1217C80.5142 24.0518 79.5741 23.032 78.5885 21.9636C76.1657 24.8548 73.605 27.6494 70.4745 29.9314ZM85.2095 26.1499C86.6085 26.4704 87.8698 26.783 89.1432 27.0248C89.3447 27.0631 89.6973 26.8389 89.8236 26.6344C91.1795 24.4352 91.9114 22.0357 91.8295 19.4164C91.7808 17.8591 91.4565 16.3598 90.6754 14.8801C88.854 18.6353 87.0807 22.2931 85.2095 26.1499ZM164.097 39.7816C164.188 39.9638 164.227 40.071 164.288 40.1602C165.892 42.4669 167.922 44.3331 170.091 46.0448C170.61 46.4546 171.219 46.7812 171.834 47.0178C172.423 47.2441 173.072 47.4159 173.695 47.4172C175.037 47.418 175.727 46.3328 175.135 45.0969C174.803 44.4021 174.298 43.7137 173.703 43.2464C170.901 41.046 167.586 40.2833 164.097 39.7816ZM89.186 11.337C90.6589 9.48231 92.1974 7.54481 93.7288 5.61689C91.247 6.51051 88.8109 6.94428 86.6957 4.81396C86.2839 6.48803 85.8716 8.16649 85.4956 9.69335C86.7457 10.2497 87.9684 10.7944 89.186 11.337ZM138.291 24.7447C138.404 23.6132 137.935 23.3209 137.027 23.8431C136.888 23.9229 136.754 24.0157 136.63 24.1187C135.42 25.1226 134.437 26.3318 133.746 27.7564C133.469 28.3278 133.304 29.0097 133.289 29.646C133.276 30.1298 133.452 30.765 133.777 31.074C134.227 31.5029 134.828 31.159 135.29 30.8449C136.927 29.73 138.026 28.1618 138.756 26.3143C138.846 26.0851 138.741 25.7479 138.66 25.4816C138.581 25.2219 138.418 24.9891 138.291 24.7447ZM36.3746 29.9258C36.3951 31.1697 37.0706 31.6121 38.1535 31.0565C38.4188 30.9201 38.6724 30.7514 38.9053 30.5632C40.2772 29.4543 41.1423 27.9592 41.8617 26.3657C42.0619 25.9218 42.2467 25.4381 41.6881 25.0507C41.5873 24.981 41.607 24.7032 41.5985 24.5197C41.5549 23.5862 41.0952 23.3063 40.2843 23.7487C40.0235 23.8909 39.7696 24.0679 39.5567 24.2768C38.3135 25.4975 37.349 26.9236 36.7053 28.5623C36.5368 28.9923 36.4817 29.4693 36.3746 29.9258ZM84.1068 10.7081C82.0578 10.8119 80.5022 11.4915 79.5047 13.2069C78.2602 15.3454 77.993 17.5866 78.8927 20.0876C81.1142 17.1934 82.8772 14.2013 84.1068 10.7081ZM104.123 24.3593C104.122 23.4837 103.799 23.066 103.206 23.2175C102.595 23.3735 101.926 23.6622 101.495 24.1105C100.202 25.4574 99.2539 27.0771 98.4711 28.7869C98.3006 29.1598 98.1977 29.5948 98.183 30.0061C98.1498 30.8874 98.7865 31.3385 99.5416 30.9223C100.093 30.6183 100.661 30.2135 101.02 29.7037C101.982 28.3351 102.855 26.8965 103.721 25.4603C103.954 25.0744 104.041 24.5942 104.123 24.3593ZM154.308 28.1515C154.876 28.0491 155.306 27.997 155.722 27.8931C157.183 27.5284 158.605 27.0559 159.556 25.7511C159.925 25.2442 160.465 24.6291 159.932 23.9872C159.429 23.3822 158.742 23.7166 158.153 23.9813C156.359 24.7901 155.284 26.3111 154.308 28.1515ZM55.851 13.3319C55.9069 13.3777 55.9619 13.4218 56.0175 13.4669C58.1024 12.0306 59.9073 10.2731 61.5171 8.29734C61.8555 7.88165 62.404 7.34854 61.8816 6.83857C61.3831 6.3512 60.7958 6.8633 60.4523 7.24987C59.311 8.53232 58.2132 9.85971 57.1575 11.2182C56.6542 11.8666 56.2825 12.6247 55.851 13.3319ZM163.069 12.8711C164.956 11.7018 166.686 10.3606 168.115 8.64876C168.352 8.36592 168.585 8.05834 168.732 7.72177C168.84 7.47509 168.805 7.1618 168.833 6.87895C168.551 6.87749 168.21 6.77017 168.001 6.89571C167.496 7.20103 167.025 7.584 166.589 7.99012C165.106 9.37416 164.003 11.0569 163.069 12.8711Z" fill="white"/>
<path fill-rule="evenodd" clip-rule="evenodd" d="M167.725 29.4227C167.725 30.9483 166.553 32.1446 165.028 32.1446C163.519 32.1446 162.314 30.9483 162.314 29.4227C162.314 27.9305 163.519 26.7341 165.028 26.7341C166.553 26.7341 167.725 27.9305 167.725 29.4227ZM162.989 29.4226C162.989 30.6189 163.856 31.5706 165.044 31.5706C166.2 31.5706 167.051 30.6189 167.051 29.4385C167.051 28.242 166.2 27.2751 165.027 27.2751C163.856 27.2751 162.989 28.242 162.989 29.4226ZM164.61 30.833H164V28.1436C164.241 28.095 164.577 28.0623 165.011 28.0623C165.509 28.0623 165.733 28.1436 165.927 28.2584C166.071 28.3739 166.184 28.5867 166.184 28.849C166.184 29.144 165.959 29.3742 165.637 29.4716V29.505C165.895 29.603 166.038 29.7992 166.119 30.1611C166.199 30.5707 166.248 30.7349 166.312 30.833H165.654C165.574 30.7349 165.525 30.4887 165.445 30.1769C165.397 29.882 165.236 29.7506 164.899 29.7506H164.61V30.833ZM164.626 29.3079H164.915C165.252 29.3079 165.526 29.1924 165.526 28.9149C165.526 28.6685 165.349 28.5043 164.963 28.5043C164.803 28.5043 164.69 28.5209 164.626 28.5369V29.3079Z" fill="white"/>
</svg>
