<svg width="124" height="40" viewBox="0 0 124 40" fill="none" xmlns="http://www.w3.org/2000/svg">
<path fill-rule="evenodd" clip-rule="evenodd" d="M115.518 18.3331C116.538 18.3283 117.373 19.1537 117.374 20.1704C117.377 21.1848 116.557 22.015 115.534 22.0229C114.52 22.0253 113.684 21.1991 113.682 20.1855C113.677 19.1672 114.503 18.3371 115.518 18.3331ZM115.541 21.7457C116.389 21.7409 117.025 21.0538 117.023 20.1704C117.015 19.2871 116.374 18.6055 115.526 18.6087C114.665 18.6119 114.029 19.2998 114.035 20.1839C114.039 21.0673 114.68 21.7488 115.541 21.7457ZM114.818 19.0981L115.644 19.0941C116.141 19.0917 116.387 19.2903 116.392 19.6962C116.392 20.0457 116.174 20.2983 115.836 20.2983L116.452 21.2508H116.079L115.469 20.2999L115.176 20.3015L115.177 21.2587H114.827L114.818 19.0981ZM115.176 20.0259L115.596 20.0219C115.864 20.0211 116.038 19.9663 116.038 19.6867C116.038 19.4404 115.816 19.3681 115.592 19.3697H115.173L115.176 20.0259ZM70.6844 0.164433C67.4582 2.92246 66.0444 5.29681 63.7089 9.38857C64.4262 10.6913 65.0615 12.1752 65.083 13.8426L66.3529 11.8765C68.6924 8.30744 72.0823 3.80897 76.8042 1.67531C76.8042 1.67531 76.8965 1.74442 76.9028 1.73568L76.8694 1.89932C72.2843 5.08868 66.6567 16.1716 65.5593 17.9566C68.9556 16.6673 71.7881 13.8116 73.4668 15.9603L73.8548 15.3375C74.083 15.3375 75.2607 15.3328 75.5192 15.3328L72.8608 20.0497C72.6676 20.6351 72.9006 21.5471 74.1053 20.1371L74.755 19.353C76.3653 17.2551 76.8495 16.4044 77.7147 15.8126C78.203 15.3193 79.9015 14.8871 80.2323 15.865L80.4303 16.3702C81.538 15.842 82.5972 14.8109 83.7956 15.5886C84.1654 15.9786 84.6799 16.3051 83.9992 17.7087C83.2883 18.824 83.4163 18.6604 82.7006 19.8233C82.1201 20.7257 82.3364 22.2922 84.8572 19.5024C86.4285 17.4315 87.9107 14.428 91.1997 15.3598C91.7054 15.6855 91.9058 15.9135 91.7762 16.4044C91.6498 16.6983 91.148 16.8627 90.8291 16.7118C90.3687 16.5068 90.5707 15.4948 89.3906 16.2534C88.4308 17.2504 87.5036 18.8089 87.1497 19.6891C86.8913 20.3444 86.9907 20.8997 87.6786 21.1253C88.5477 21.1848 89.2149 20.6598 89.828 20.006C91.9822 18.2957 93.6314 14.6306 96.9545 15.3495C98.6093 15.8833 97.5716 17.8493 99.5596 16.6784C101.288 15.7228 101.939 14.9205 104.133 15.4019C104.552 15.6307 104.92 15.9865 104.888 16.5068C104.806 16.8325 104.693 16.9175 104.395 17.0367C103.431 17.3314 104.084 15.6473 102.741 16.294C101.925 16.8206 101.366 17.8493 100.748 18.9781C99.7759 20.485 100.224 22.1484 102.67 20.4056C103.97 19.4674 104.409 18.9122 104.947 18.3371C109.684 13.273 109.966 10.1218 115.078 5.52717C117.017 3.44435 119.992 3.26801 118.252 5.85683C118.01 6.15313 117.961 6.23177 117.278 6.95385C115.823 8.40515 114.901 8.92466 113.072 10.0431C111.772 11.894 110.979 13.528 109.726 15.56L109.337 16.3583C110.393 15.7022 111.423 15.2247 111.817 15.1064C114.413 14.4749 114.274 16.5982 113.885 17.221C112.652 19.0226 110.459 19.1799 108.599 19.5477C110.828 21.0061 111.899 22.7331 113.756 25.615C116.308 26.0312 118.077 26.6755 119.028 27.1291C120.24 27.7447 120.963 28.1665 121.748 28.8155C125.23 32.3297 121.104 34.4896 116.727 31.5473C114.757 30.0539 114.163 29.1102 112.36 26.5047C104.731 25.4966 95.5208 25.7357 89.4351 26.4904L89.3039 26.3617C94.0704 25.0677 104.252 24.3528 111.436 25.2369C110.58 23.8015 108.699 20.0839 107.587 19.7653C107.055 20.5351 106.321 21.9617 106.321 21.9617H104.032C104.71 20.6518 105.771 18.8756 106.319 17.6626C105.05 19.0726 104.025 20.1704 102.771 21.0728C100.634 22.4399 99.6161 21.9871 98.8948 21.2738C98.2356 20.1967 98.8487 18.7501 99.205 17.5459C98.5266 17.665 98.638 18.0654 97.8324 17.8787C97.1533 19.3197 96.8297 20.1546 95.7212 21.0554C93.8644 22.4701 92.3583 22.0515 91.7309 21.107C91.4844 20.4381 91.4152 20.1585 91.7022 18.8693C90.224 20.296 88.4348 22.6894 86.0468 21.6877C85.3908 21.3636 85.2421 20.7773 85.1832 20.2268C85.1856 20.2062 85.2341 19.9583 85.3168 19.7312C83.5443 21.81 81.6684 22.5384 80.6005 21.4335C79.845 20.5382 81.4696 18.3752 81.8426 17.6539L82.0191 17.3449C82.7181 16.2971 81.3289 16.5958 81.1054 16.761C80.2546 17.0565 79.5222 18.2703 78.8749 19.4658L77.5445 21.9617H75.3705C76.2945 20.261 77.2376 18.7636 78.1147 17.0812C78.1648 16.873 78.1942 16.1859 77.4094 16.7436C77.0833 17.1852 76.6428 17.7421 75.8325 18.824C75.2043 19.6605 73.4612 22.3955 71.7921 22.0118C71.039 21.7528 70.9794 21.5606 70.8752 21.134C70.8315 21.0061 70.9309 20.7472 70.8386 20.8377C70.0617 21.4994 69.1791 22.0229 68.0642 21.895C67.4614 21.8736 66.904 21.331 66.7951 20.7821C66.6074 19.7113 67.1362 18.5754 67.7843 17.6833L67.5545 17.7476C66.904 18.0956 65.9211 18.3442 65.2062 18.5754C64.524 19.6239 63.961 20.8599 63.2898 21.9617H60.8382L62.427 18.8494C61.4147 18.8558 59.9707 18.4999 59.3202 18.1456C58.0829 20.3722 56.2929 21.8172 53.9741 22.2501C51.9805 22.6258 50.0172 21.6217 48.5723 20.771C46.2901 22.5789 41.9101 22.7283 44.5128 19.222C44.9669 18.4999 44.4293 19.3379 45.0464 18.3514C45.3947 17.8001 45.2738 18.0598 45.5338 17.5689C46.4109 16.3877 44.7577 15.4948 42.9375 18.511C42.1256 19.7884 41.8179 20.2253 40.7952 21.9617H38.8725C39.8394 20.2761 40.8135 18.7319 41.7566 17.047C42.0803 16.5203 41.8155 15.6894 40.7571 16.854L40.5774 17.0812C39.9603 17.8676 38.6108 19.7049 37.7321 20.8369C36.0097 22.8697 33.6035 21.949 34.8018 19.7868C35.3227 18.8057 35.3529 18.8367 35.5485 18.4443C35.8109 17.9693 35.9215 17.7556 36.0018 17.5761C37.189 15.7252 34.7199 16.0318 32.8393 19.6636L31.5423 21.9617H29.5074C29.5074 21.9617 32.0131 17.6761 33.1502 15.5806L32.724 15.8785C31.9972 16.537 31.194 17.0597 30.2215 17.0224C29.7953 19.0234 28.7878 20.1712 28.0737 20.7972C26.2805 22.3406 24.9072 21.8736 24.38 21.5622C23.8806 21.1253 23.6873 20.5811 23.6571 19.9576C23.7215 18.4665 24.5716 17.5157 25.4495 16.3329C24.7974 16.5299 23.949 16.5362 23.1657 16.8317C22.2107 18.6024 18.1949 27.7979 15.3362 31.9588C9.5853 40.0176 2.72353 41.1916 0.573315 39.0747C-0.988455 37.1261 0.760187 32.9374 4.36721 28.2467C7.94242 23.8889 13.8102 19.6509 20.5837 17.0565C23.3104 12.2769 26.5771 7.86895 30.6787 3.93209C28.5913 4.98542 24.7012 4.87182 23.0909 3.45706C23.5927 6.54237 21.06 9.8207 18.253 10.8129C20.8588 8.87302 23.1355 6.21827 22.4683 3.0996C22.0723 2.58168 21.8123 2.64681 21.5809 1.96287C21.4783 1.08192 22.2973 1.20743 22.6623 2.25043C23.4504 3.39193 25.1378 4.04092 27.0987 4.12433C29.5829 4.06872 31.0191 3.35936 32.6993 2.09394L32.7971 2.32192C28.6295 6.227 24.477 14.0173 23.5402 16.1748C26.4809 15.2827 28.8307 14.7497 29.5193 15.6624C29.94 15.9691 29.8629 16.2201 30.3082 16.4751C31.2576 16.7976 33.3124 14.795 34.5776 13.1237C36.8542 10.2759 37.8848 6.64484 42.5654 4.01073C43.3796 3.63023 44.5263 4.06872 43.6651 5.50811C42.8548 6.8188 40.1837 9.05176 38.7166 10.0352C37.523 10.8391 36.3445 13.7067 34.8193 15.9651C36.0567 15.4194 39.3082 14.231 38.1592 17.1606C37.9659 17.619 37.3155 18.8296 36.7334 19.7455C36.1473 20.435 36.4789 21.447 37.6296 19.9544C37.9063 19.6287 38.8764 18.2719 39.2899 17.7596C40.5734 16.1684 41.3869 14.8601 43.0878 15.4376C43.5307 15.6839 43.5912 16.3218 43.5673 16.7944C44.1542 16.3178 44.7593 15.8904 45.5426 15.56C46.166 15.3447 46.7139 15.1445 47.3715 15.4519C48.2574 16.0692 47.5266 17.3314 47.3485 17.6094L45.7255 20.1967C45.401 20.9163 45.6332 21.5034 46.6447 21.2055C47.428 20.9084 47.6888 20.7106 48.1612 20.3976C47.7349 19.925 47.3254 19.5207 47.6888 19.3793C47.8001 19.4325 48.6009 20.0839 48.6009 20.0839C50.3607 18.774 52.5443 16.8357 54.7231 14.2143C54.3908 13.2984 54.2611 13.1062 54.2269 12.4842C53.8564 10.7882 54.6897 6.60115 59.0387 6.61704C59.0387 6.61704 59.6979 4.61127 59.7162 4.48973C59.907 3.57463 60.1345 2.8891 59.7655 1.4934C59.6788 1.07239 59.655 0.733991 59.9937 0.602126C60.8311 0.676002 60.5281 1.69358 60.7667 2.21706C60.9798 2.79059 61.1547 3.1981 61.7034 3.40464C65.3398 4.92266 68.4936 0.533811 70.6502 0L70.6844 0.164433ZM41.6381 5.51843C40.1106 7.28668 39.6565 7.97619 38.975 9.21937C40.1169 8.66093 42.3785 6.46055 43.0464 5.57642C43.8583 4.68833 43.1347 3.79546 41.6381 5.51843ZM116.747 5.15938C115.361 6.37793 114.695 7.50434 113.784 8.94611L115.189 7.97619C116.096 7.2978 116.561 6.87203 117.159 6.27069C119.097 4.23474 117.56 4.27526 116.747 5.15938ZM55.8094 8.6236C54.8027 10.0304 54.4488 11.8296 55.1446 13.6217C56.5425 11.9512 58.1337 9.28371 58.7786 7.27159C57.6821 7.28271 56.5084 7.70372 55.8094 8.6236ZM59.4347 7.33355C58.5536 9.75953 56.9887 12.4238 55.6368 14.0451L55.4746 14.3073C55.904 15.0905 56.5942 15.9365 57.3489 16.3885C58.8423 13.9998 60.1042 11.2807 61.9889 8.43215C61.5268 7.77998 59.9643 7.34388 59.4347 7.33355ZM63.4011 10.0908L59.8052 17.2933L59.6096 17.6523C60.5281 18.0408 61.934 18.3625 62.6203 18.3601C64.4715 15.5759 64.6273 12.5136 63.4011 10.0908ZM55.7116 15.8078L54.9887 14.8641C53.5884 16.4393 52.0584 18.3077 49.2561 20.3444C50.2557 20.9084 51.5567 21.1427 52.759 20.9465C54.72 20.5494 56.0487 18.5825 56.9902 17.0097L55.7116 15.8078ZM70.8219 16.4933C69.6482 17.9025 69.7166 17.9693 68.9985 19.2132C68.4475 20.1951 68.5763 20.8361 68.9763 21.0427C69.346 21.1698 69.7611 21.0387 70.542 20.2848C71.4835 19.0401 71.5487 18.9074 72.4887 17.3362C73.524 15.3399 71.664 15.3804 70.8219 16.4933ZM96.7191 16.9374C96.9895 15.4019 95.5701 15.7331 93.7944 18.3061C92.5444 20.0934 93.0135 23.0286 95.9804 19.6509C96.32 19.1251 96.514 18.8971 96.7907 18.3418C97.4698 17.0319 96.7191 17.41 96.7358 17.1002L96.7191 16.9374ZM110.544 16.2884C109.599 16.7825 108.994 17.1288 107.861 19.1092C109.399 18.8629 110.719 18.5094 111.535 17.4942C112.54 16.1176 111.426 15.8277 110.544 16.2884ZM20.1455 17.8239C12.4114 21.1578 7.58935 25.6539 3.17123 31.6823C1.45121 34.403 -0.266414 37.613 1.4377 38.9436C3.92826 40.3385 8.56347 38.5043 14.2746 28.3706C16.4487 24.4759 18.6879 20.7058 20.1455 17.8239ZM114.664 26.9996C115.767 28.516 115.961 28.6145 116.718 29.3755C117.242 29.8124 118.196 30.776 118.834 31.2129C122.638 33.8096 124.143 30.6338 120.428 28.6884C119.081 27.9623 117.639 27.4134 114.664 26.9996ZM60.5615 3.14726C60.5003 4.029 60.047 5.6638 59.6907 6.71077C60.381 6.67582 61.6581 7.25809 62.3109 7.81176C63.6127 5.99426 64.8524 4.56599 65.8098 3.58098C65.075 4.23872 61.8441 5.0021 60.5615 3.14726ZM29.0645 16.7761C29.2243 15.5989 28.0005 15.5059 26.3274 18.1273C24.6543 20.5168 25.5147 22.6846 27.9878 19.9965C28.3798 19.4738 28.5412 19.2712 29.1885 18.0956C29.734 16.8325 29.0692 17.2496 29.0836 16.939L29.0645 16.7761ZM32.6492 2.14319C32.7621 2.0288 32.9434 2.19085 32.7971 2.32192C32.7152 2.29094 32.6134 2.17894 32.6492 2.14319Z" fill="#0000C1"/>
</svg>
